<?xml version="1.0" standalone="no"?>
<!DOCTYPE svg PUBLIC "-//W3C//DTD SVG 20010904//EN"
 "http://www.w3.org/TR/2001/REC-SVG-20010904/DTD/svg10.dtd">
<svg version="1.0" xmlns="http://www.w3.org/2000/svg"
 width="260.000000pt" height="260.000000pt" viewBox="0 0 260.000000 260.000000"
 preserveAspectRatio="xMidYMid meet">
<metadata>
Created by potrace 1.14, written by Peter Selinger 2001-2017
</metadata>
<g transform="translate(0.000000,260.000000) scale(0.100000,-0.100000)"
fill="#000000" stroke="none">
<path d="M1160 2579 c12 -7 8 -9 -15 -7 -17 2 -36 -3 -43 -12 -8 -8 -11 -9 -7
-2 4 7 0 12 -9 12 -9 0 -16 -4 -16 -10 0 -5 -5 -10 -11 -10 -5 0 -7 4 -4 10 3
6 -1 7 -9 4 -9 -3 -16 -11 -16 -16 0 -6 -8 -4 -17 3 -9 8 -14 9 -10 3 8 -13
-19 -27 -34 -18 -5 3 -9 0 -9 -7 0 -9 -3 -9 -14 0 -11 9 -16 9 -22 0 -5 -8 -3
-9 6 -4 9 5 11 4 6 -4 -4 -6 -18 -9 -32 -7 -13 3 -22 1 -19 -4 3 -5 1 -11 -5
-15 -5 -3 -10 0 -10 7 -1 9 -5 7 -14 -4 -7 -10 -16 -15 -19 -11 -4 3 -7 1 -7
-5 0 -7 -5 -12 -11 -12 -5 0 -7 5 -4 11 4 6 -2 5 -13 -2 -12 -7 -18 -18 -15
-24 4 -5 3 -7 -1 -3 -11 10 -67 -12 -60 -24 4 -6 -2 -8 -16 -3 -14 4 -20 3
-17 -2 4 -6 -5 -15 -18 -21 -14 -7 -25 -17 -25 -23 0 -6 -7 -9 -15 -5 -10 3
-15 -1 -15 -12 0 -15 -2 -15 -10 -2 -8 13 -10 13 -10 -2 0 -9 -5 -20 -12 -24
-7 -4 -8 -3 -4 4 5 8 2 10 -8 6 -9 -3 -13 -10 -10 -15 3 -5 -2 -9 -12 -9 -14
0 -15 -2 -3 -17 10 -12 11 -15 1 -9 -7 4 -19 3 -26 -3 -8 -7 -18 -11 -22 -10
-21 3 -26 -2 -14 -16 10 -12 8 -13 -10 -10 -19 4 -20 2 -8 -12 9 -12 9 -15 1
-9 -8 4 -13 2 -13 -4 0 -6 -5 -8 -12 -4 -7 5 -9 2 -5 -9 4 -11 2 -14 -9 -10
-7 3 -14 0 -14 -7 0 -6 -5 -8 -12 -4 -8 5 -7 0 2 -11 9 -11 10 -16 3 -11 -8 4
-13 2 -13 -4 0 -6 -5 -8 -12 -4 -8 5 -9 2 -5 -9 3 -9 1 -19 -5 -23 -7 -5 -8
-2 -3 7 8 12 6 12 -9 0 -9 -8 -15 -20 -12 -28 3 -8 2 -12 -3 -8 -10 6 -41 -21
-41 -36 0 -6 6 -7 13 -3 7 4 9 3 4 -2 -5 -5 -14 -9 -20 -9 -7 0 -11 -8 -11
-17 1 -11 -4 -14 -15 -10 -14 5 -14 4 -1 -13 8 -10 11 -16 5 -13 -5 3 -16 0
-23 -8 -9 -10 -9 -14 -1 -14 6 0 1 -9 -12 -21 -13 -11 -17 -18 -9 -14 8 4 6
-1 -4 -9 -18 -15 -15 -20 9 -17 6 1 2 -5 -7 -12 -10 -8 -15 -17 -11 -20 3 -4
0 -7 -7 -7 -7 0 -10 -3 -7 -6 4 -4 -6 -18 -21 -32 -15 -13 -20 -21 -12 -17 8
5 5 -2 -7 -14 -13 -12 -23 -28 -23 -36 0 -7 -7 -21 -16 -29 -12 -12 -12 -16
-2 -16 8 0 6 -5 -5 -11 -9 -6 -15 -14 -12 -20 4 -5 2 -9 -2 -9 -16 0 -32 -57
-19 -71 8 -9 8 -10 0 -6 -15 9 -27 -20 -12 -29 7 -4 6 -9 -3 -15 -12 -8 -11
-11 1 -19 11 -7 12 -10 2 -10 -8 0 -12 -9 -11 -22 2 -13 0 -29 -5 -36 -4 -7
-5 -16 -2 -19 3 -4 -2 -16 -11 -27 -12 -14 -13 -17 -3 -9 13 10 16 8 16 -7 0
-10 -5 -16 -10 -13 -5 4 -7 -1 -3 -10 3 -9 1 -18 -6 -21 -9 -3 -8 -5 1 -5 9
-1 10 -6 2 -20 -8 -16 -6 -22 7 -30 15 -8 15 -10 3 -11 -17 0 -22 -40 -5 -40
5 0 3 -5 -5 -10 -9 -6 -11 -10 -3 -10 7 0 10 -7 7 -15 -4 -8 -1 -15 6 -15 6 0
8 -5 5 -10 -4 -6 -12 -8 -18 -4 -7 3 -4 -1 6 -9 14 -11 15 -16 5 -20 -10 -4
-10 -6 1 -6 11 -1 11 -4 1 -16 -10 -12 -8 -16 11 -24 20 -8 20 -10 5 -10 -16
-1 -17 -3 -5 -18 9 -11 10 -14 2 -9 -9 5 -11 2 -7 -8 3 -9 11 -13 18 -9 6 3 6
1 -1 -8 -16 -16 -17 -33 -2 -23 6 3 10 -1 9 -12 -5 -43 0 -65 12 -58 10 6 10
4 0 -8 -7 -9 -9 -18 -3 -20 5 -1 11 -10 13 -18 2 -8 8 -18 13 -22 6 -5 4 -8
-5 -8 -9 0 -7 -5 8 -16 18 -13 21 -19 11 -30 -8 -10 -8 -14 0 -14 6 0 11 -9
11 -20 0 -11 5 -20 11 -20 6 0 9 -9 6 -19 -3 -14 -1 -18 10 -14 10 4 14 0 11
-13 -2 -12 2 -18 11 -16 12 3 12 0 1 -12 -10 -14 -10 -16 6 -16 16 0 17 -2 4
-10 -13 -8 -12 -10 3 -10 10 0 15 -4 12 -10 -3 -5 -2 -10 4 -10 6 0 8 -7 5
-15 -4 -9 2 -18 17 -24 13 -5 17 -10 9 -10 -10 -1 -7 -6 8 -17 12 -8 22 -23
22 -32 0 -9 14 -28 30 -41 17 -13 30 -32 30 -42 0 -11 5 -19 11 -19 5 0 7 -6
3 -13 -5 -7 0 -6 11 3 11 9 16 10 11 3 -4 -8 -2 -13 5 -13 7 0 10 -3 6 -6 -8
-8 16 -33 25 -27 4 2 5 -3 2 -11 -4 -12 0 -16 16 -16 11 0 18 -4 15 -10 -3 -5
-1 -10 5 -10 6 0 8 -5 4 -12 -5 -8 -2 -9 10 -5 10 4 15 3 11 -3 -3 -6 1 -13 9
-16 9 -3 16 -13 16 -21 0 -8 5 -11 10 -8 6 4 7 11 4 17 -4 6 -2 8 4 4 6 -3 9
-15 7 -26 -2 -12 0 -18 5 -15 5 3 18 -3 30 -15 11 -11 27 -20 36 -20 11 0 14
-5 10 -16 -4 -12 -2 -15 9 -10 8 3 15 1 15 -4 0 -6 9 -10 21 -10 11 0 17 -5
14 -10 -3 -6 3 -10 15 -10 12 0 18 -5 15 -10 -3 -6 3 -10 14 -10 12 0 21 -4
21 -10 0 -5 5 -10 11 -10 5 0 7 6 4 12 -3 7 2 3 11 -9 9 -13 25 -23 35 -23 11
0 19 -6 19 -12 0 -10 3 -9 9 1 6 9 10 10 12 2 3 -7 14 -13 26 -14 12 0 19 -5
17 -9 -5 -7 18 -12 39 -9 4 0 7 -3 7 -8 0 -5 7 -12 16 -15 8 -3 12 -2 9 4 -3
6 -1 10 4 10 6 0 11 -7 11 -16 0 -14 3 -14 15 -4 12 10 15 10 15 0 0 -8 3 -10
6 -7 4 3 16 2 27 -4 15 -8 18 -8 12 1 -6 9 -2 9 14 0 12 -6 19 -16 16 -23 -4
-7 0 -4 8 6 10 12 16 14 19 6 5 -15 48 -20 48 -5 0 6 8 3 17 -7 16 -15 18 -16
35 0 15 13 18 14 13 2 -4 -11 1 -14 20 -14 14 1 28 4 31 8 4 3 16 2 27 -4 11
-6 17 -7 13 -1 -3 5 5 10 19 10 16 0 22 -5 18 -12 -4 -6 1 -5 10 3 14 11 17
11 17 0 0 -11 2 -11 10 1 8 12 13 13 29 3 16 -10 22 -10 28 0 4 6 17 13 28 14
11 1 35 4 53 7 24 4 31 2 25 -7 -4 -8 -1 -7 10 1 9 8 22 10 28 6 8 -4 9 -3 5
5 -5 8 0 10 18 7 15 -3 24 -1 21 4 -3 4 2 11 11 14 8 3 12 2 9 -4 -3 -5 3 -8
14 -7 11 0 17 5 15 9 -5 7 10 12 29 9 4 0 7 4 7 10 0 6 7 9 15 5 8 -3 15 -1
15 4 0 5 8 6 17 3 12 -5 15 -2 10 10 -6 15 -4 16 14 6 17 -9 20 -8 14 2 -6 9
-3 11 9 6 11 -5 15 -3 10 5 -5 7 -2 9 8 5 9 -3 23 2 33 13 10 11 22 17 26 14
5 -3 9 3 10 13 0 10 3 13 6 6 7 -18 32 8 25 27 -2 8 2 6 11 -5 14 -19 16 -19
22 -3 4 10 12 15 18 11 5 -3 7 -1 4 4 -4 6 1 17 10 24 14 12 16 12 8 -1 -4 -8
6 0 24 19 17 19 31 29 31 22 0 -9 3 -9 14 1 8 7 12 16 9 20 -2 5 3 8 12 8 8 0
18 7 21 15 4 8 13 15 21 15 8 0 11 4 8 10 -3 6 -1 10 5 10 6 0 8 5 5 10 -3 6
-1 10 6 10 6 0 18 8 26 18 8 9 11 11 7 3 -4 -9 -3 -12 4 -7 6 4 8 14 5 23 -5
12 -2 15 9 10 18 -6 32 18 21 36 -4 7 1 5 11 -2 16 -13 17 -13 14 5 -2 11 2
18 9 17 8 -2 10 4 6 14 -4 10 -2 14 4 10 6 -4 17 1 24 10 10 11 10 14 2 9 -9
-5 -11 -2 -7 9 4 10 13 14 22 10 9 -3 14 -3 10 0 -3 4 0 18 7 32 8 15 12 30 9
34 -2 5 4 13 15 19 13 6 18 18 16 31 -4 17 -2 19 11 8 12 -10 13 -9 8 6 -6 14
-4 16 7 10 12 -8 12 -6 0 9 -8 9 -10 16 -5 15 19 -3 28 2 16 10 -10 6 -9 11 4
22 16 12 17 12 9 -1 -8 -13 -6 -13 7 -2 9 8 14 20 11 28 -3 8 0 14 7 14 6 0 8
4 5 10 -3 5 -1 10 4 10 6 0 11 5 11 11 0 5 -6 7 -12 3 -7 -4 -2 5 12 20 22 24
22 26 5 21 -20 -7 -20 -6 0 10 11 9 20 24 20 33 0 9 4 23 9 31 7 10 5 12 -5 7
-8 -4 -6 -1 4 7 18 15 24 33 8 23 -11 -7 -9 12 6 39 5 11 8 26 5 34 -2 8 0 11
5 8 5 -3 10 0 10 8 0 8 -5 15 -10 15 -5 0 -5 6 2 13 7 10 7 17 0 24 -8 8 -7
13 2 18 8 5 10 4 5 -3 -4 -7 -2 -12 4 -12 7 0 9 7 6 15 -15 37 -18 50 -8 37 7
-11 10 -9 15 7 3 12 1 19 -4 15 -5 -3 -9 2 -9 11 0 10 5 14 13 9 9 -5 9 -4 0
6 -8 9 -9 19 -2 32 7 12 6 18 -1 18 -7 0 -7 7 1 21 8 15 8 19 0 15 -12 -8 -15
6 -4 18 14 13 12 38 -3 32 -11 -4 -10 1 3 21 10 15 12 24 6 20 -16 -10 -17 5
-1 21 9 9 7 13 -5 18 -9 3 -14 10 -11 15 3 5 11 6 17 2 7 -3 4 3 -5 14 -21 23
-24 37 -5 27 6 -4 1 6 -13 22 -14 15 -18 23 -9 16 13 -9 16 -9 16 3 0 8 -5 15
-10 15 -5 0 -7 6 -4 14 3 7 0 19 -6 25 -8 8 -7 11 3 11 9 0 8 5 -6 15 -10 8
-15 15 -11 15 4 0 3 10 -4 21 -9 17 -8 20 2 14 9 -6 11 -3 6 9 -4 10 -7 20 -7
22 0 3 -6 2 -12 -2 -10 -6 -10 -5 0 8 10 12 9 18 -3 28 -8 7 -12 16 -9 21 3 5
0 9 -7 9 -8 0 -7 5 2 17 8 9 10 14 4 11 -14 -8 -38 19 -25 27 16 10 0 27 -17
20 -13 -4 -14 -3 -4 9 10 12 8 19 -8 35 -23 23 -28 36 -8 25 10 -7 -5 18 -23
36 -3 3 -12 14 -20 24 -12 16 -12 18 -1 11 10 -6 12 -4 7 4 -5 7 -14 10 -20 8
-7 -3 -13 1 -13 9 0 7 3 11 7 9 4 -2 7 2 7 9 0 8 -7 12 -15 8 -10 -3 -13 -1
-8 6 4 7 1 12 -10 12 -14 0 -14 3 -4 15 11 13 10 14 -5 9 -13 -5 -16 -4 -11 4
4 7 2 12 -4 12 -7 0 -9 7 -6 17 4 10 4 15 1 11 -10 -10 -56 35 -51 49 3 7 0
15 -6 19 -7 5 -8 2 -3 -6 6 -9 4 -11 -4 -6 -7 5 -10 15 -6 23 4 13 3 14 -10 3
-12 -10 -15 -9 -15 6 0 11 -5 26 -11 34 -8 11 -9 9 -4 -10 7 -24 7 -24 -9 -5
-8 11 -16 24 -16 28 0 4 -12 20 -27 35 -15 15 -21 20 -14 10 8 -11 9 -18 1
-23 -6 -4 -10 -3 -9 2 3 13 -12 43 -20 39 -3 -2 -12 2 -19 10 -7 8 -10 14 -6
14 3 0 1 6 -6 14 -6 8 -18 12 -26 9 -8 -3 -14 0 -14 7 0 6 -4 8 -10 5 -5 -3
-10 0 -10 8 0 8 -7 18 -16 21 -10 4 -13 2 -8 -6 4 -7 3 -8 -4 -4 -7 4 -12 14
-12 23 0 13 -2 14 -17 2 -11 -10 -14 -10 -9 -1 4 8 1 12 -9 12 -11 0 -15 5
-11 15 5 13 2 14 -16 4 -17 -9 -20 -9 -16 3 5 13 -3 16 -49 20 -7 1 -10 4 -8
8 7 11 -42 33 -60 26 -9 -3 -18 0 -21 9 -4 8 -10 12 -15 9 -5 -3 -9 3 -10 13
0 11 -3 13 -6 5 -4 -10 -8 -10 -21 0 -9 7 -13 8 -9 2 3 -6 -1 -11 -9 -11 -8 0
-13 6 -10 13 3 8 0 16 -6 20 -7 4 -8 3 -4 -4 4 -7 2 -12 -3 -12 -6 0 -11 6
-11 13 0 8 -4 7 -10 -3 -8 -12 -10 -12 -10 -1 0 8 -7 11 -19 8 -15 -4 -18 -1
-13 12 5 13 3 14 -9 4 -12 -9 -18 -10 -27 -1 -8 8 -16 8 -28 -3 -16 -12 -17
-12 -11 4 5 15 4 16 -13 7 -14 -7 -23 -6 -34 6 -9 8 -16 11 -16 5 0 -13 -22
-10 -32 4 -5 6 -12 4 -18 -5 -9 -13 -11 -13 -19 -1 -8 12 -12 12 -25 2 -12
-11 -16 -11 -16 -1 0 10 -3 10 -15 0 -12 -10 -15 -10 -15 0 0 10 -3 10 -15 0
-12 -10 -15 -10 -15 0 0 10 -3 10 -15 0 -12 -10 -15 -10 -15 0 0 10 -3 10 -15
0 -12 -10 -15 -10 -15 0 0 10 -3 10 -14 1 -10 -8 -16 -9 -21 -1 -3 5 -12 10
-18 10 -7 0 -6 -4 3 -11z m885 -248 c3 -5 2 -12 -3 -15 -5 -3 -9 1 -9 9 0 17
3 19 12 6z"/>
</g>
</svg>
